<svg width="101" height="22" id="Layer_1" data-name="Layer 1" xmlns="http://www.w3.org/2000/svg" viewBox="0 0 566.93 106.87">
  <defs>
    <style>
      .cls-1,.cls-2{fill:#fff;}
      .cls-1,.cls-3{fill-rule:evenodd;}
      .cls-3{fill:#2492eb;}
    </style>
  </defs>
  <path class="cls-1" d="M178.41,87.12a28.08,28.08,0,0,1-14-3.59,25.91,25.91,0,0,1-9.94-10,29.62,29.62,0,0,1,0-28.25,25.88,25.88,0,0,1,10-10,28,28,0,0,1,14-3.61A26.53,26.53,0,0,1,195,37q7,5.33,9.86,15.41H193.68a15.82,15.82,0,0,0-6.17-7.16,16.32,16.32,0,0,0-8.68-2.46,17.22,17.22,0,0,0-8.07,2,15.63,15.63,0,0,0-6.14,5.81,17.85,17.85,0,0,0-.19,17.26,16.41,16.41,0,0,0,5.79,6,14.94,14.94,0,0,0,8,2.23c7.23,0,12.37-3.29,15.37-9.89h11.35a31.36,31.36,0,0,1-5.77,11.52,24.73,24.73,0,0,1-9.16,7,28.61,28.61,0,0,1-11.59,2.34Z"/>
  <rect class="cls-2" x="19.35" width="10.11" height="18.5" rx="5.05"/>
  <rect class="cls-2" x="68.31" width="10.11" height="18.5" rx="5.05"/>
  <path class="cls-1" d="M11,9.1h3v4.35A10.43,10.43,0,0,0,24.4,23.84h0A10.42,10.42,0,0,0,34.79,13.45V9.1H63v4.35A10.42,10.42,0,0,0,73.36,23.84h0A10.42,10.42,0,0,0,83.75,13.45V9.1h3a11,11,0,0,1,11,11V95.91a11,11,0,0,1-11,11H48.54L0,58.33V20.07a11,11,0,0,1,11-11ZM68.21,33.64H29.31a5,5,0,0,0-5,5v38.9a5,5,0,0,0,5,5H61.1L73.24,94.74V38.67A5,5,0,0,0,68.21,33.64Z"/>
  <polygon class="cls-3" points="48.54 58.33 0 58.33 48.54 106.87 48.54 58.33"/>
</svg>
